<svg width="18" height="18" viewBox="0 0 18 18" fill="none" xmlns="http://www.w3.org/2000/svg">
<rect width="18" height="18" rx="9" fill="white" fill-opacity="0.05"/>
<path fill-rule="evenodd" clip-rule="evenodd" d="M5.00681 11.9949C4.73113 12.2706 4.73113 12.7176 5.00681 12.9932C5.28248 13.2689 5.72944 13.2689 6.00512 12.9932L9.00005 9.9983L11.995 12.9932C12.2707 13.2689 12.7176 13.2689 12.9933 12.9932C13.269 12.7176 13.269 12.2706 12.9933 11.9949L9.99836 8.99999L12.9933 6.00506C13.269 5.72938 13.269 5.28242 12.9933 5.00674C12.7176 4.73107 12.2707 4.73107 11.995 5.00674L9.00005 8.00168L6.00512 5.00674C5.72944 4.73107 5.28248 4.73107 5.00681 5.00674C4.73113 5.28242 4.73113 5.72938 5.00681 6.00506L8.00174 8.99999L5.00681 11.9949Z" fill="#FCF9F2"/>
</svg>
